<svg width="220" height="130" viewBox="0 0 220 130" fill="none" xmlns="http://www.w3.org/2000/svg">
<rect x="0.5" y="0.5" width="219" height="129" rx="4.5" fill="white" stroke="#006355"/>
<path d="M24.91 35.194H37.118V36.258H24.91V35.194ZM27.696 41.438H34.22V42.502H27.696V41.438ZM30.44 32.254H31.546V45.12H30.44V32.254ZM30.104 35.544L31.056 35.852C30.636 36.8413 30.1227 37.7887 29.516 38.694C28.9093 39.59 28.2373 40.402 27.5 41.13C26.7627 41.8487 25.9927 42.4413 25.19 42.908C25.134 42.824 25.0593 42.7307 24.966 42.628C24.8727 42.516 24.7793 42.4087 24.686 42.306C24.602 42.2033 24.518 42.1147 24.434 42.04C25.022 41.732 25.5913 41.3493 26.142 40.892C26.702 40.4347 27.2293 39.9213 27.724 39.352C28.228 38.7733 28.6807 38.162 29.082 37.518C29.4833 36.874 29.824 36.216 30.104 35.544ZM31.882 35.586C32.2553 36.4727 32.736 37.3313 33.324 38.162C33.912 38.9833 34.57 39.7253 35.298 40.388C36.0353 41.0413 36.8053 41.564 37.608 41.956C37.524 42.0307 37.4307 42.1193 37.328 42.222C37.2347 42.3247 37.1413 42.4367 37.048 42.558C36.9547 42.67 36.8753 42.7773 36.81 42.88C35.998 42.4227 35.2187 41.8393 34.472 41.13C33.7347 40.4113 33.0673 39.604 32.47 38.708C31.8727 37.812 31.3687 36.8787 30.958 35.908L31.882 35.586ZM44.412 32.24H45.56V37.756H44.412V32.24ZM39.694 33.234L40.646 32.856C40.9073 33.1827 41.1593 33.5373 41.402 33.92C41.6447 34.2933 41.864 34.6667 42.06 35.04C42.256 35.404 42.4053 35.7353 42.508 36.034L41.5 36.496C41.3973 36.188 41.2527 35.8473 41.066 35.474C40.8793 35.0913 40.6647 34.704 40.422 34.312C40.1887 33.92 39.946 33.5607 39.694 33.234ZM49.214 32.73L50.348 33.108C50.1427 33.5093 49.9233 33.92 49.69 34.34C49.466 34.7507 49.2373 35.152 49.004 35.544C48.7707 35.936 48.5467 36.2813 48.332 36.58L47.422 36.23C47.6273 35.9127 47.842 35.5533 48.066 35.152C48.29 34.7413 48.5047 34.326 48.71 33.906C48.9153 33.4767 49.0833 33.0847 49.214 32.73ZM39.89 37.196H50.166V45.134H49.06V38.246H39.89V37.196ZM40.352 40.276H49.48V41.284H40.352V40.276ZM39.61 43.468H49.62V44.518H39.61V43.468ZM58.384 34.55C58.7667 34.606 59.21 34.6527 59.714 34.69C60.2273 34.718 60.7547 34.732 61.296 34.732C61.8467 34.7227 62.3693 34.704 62.864 34.676C63.368 34.6387 63.7927 34.592 64.138 34.536V35.67C63.7647 35.7073 63.326 35.74 62.822 35.768C62.3273 35.7867 61.8093 35.796 61.268 35.796C60.736 35.796 60.218 35.7867 59.714 35.768C59.21 35.74 58.7667 35.7073 58.384 35.67V34.55ZM58.93 40.248C58.8647 40.5 58.8133 40.7287 58.776 40.934C58.7387 41.1393 58.72 41.34 58.72 41.536C58.72 41.6947 58.7527 41.8533 58.818 42.012C58.8927 42.1613 59.014 42.2967 59.182 42.418C59.3593 42.53 59.602 42.6233 59.91 42.698C60.218 42.7633 60.61 42.796 61.086 42.796C61.7207 42.796 62.318 42.768 62.878 42.712C63.438 42.6467 63.998 42.5533 64.558 42.432L64.586 43.608C64.1473 43.7013 63.634 43.776 63.046 43.832C62.4673 43.8787 61.814 43.902 61.086 43.902C59.91 43.902 59.0467 43.7153 58.496 43.342C57.9547 42.9687 57.684 42.4553 57.684 41.802C57.684 41.5687 57.7027 41.3213 57.74 41.06C57.7867 40.7893 57.8473 40.486 57.922 40.15L58.93 40.248ZM55.71 33.472C55.6913 33.5467 55.6633 33.6447 55.626 33.766C55.598 33.878 55.5653 33.9947 55.528 34.116C55.5 34.228 55.4767 34.326 55.458 34.41C55.4113 34.6713 55.3553 34.9747 55.29 35.32C55.2247 35.656 55.1593 36.02 55.094 36.412C55.038 36.7947 54.982 37.1867 54.926 37.588C54.8793 37.98 54.8373 38.3627 54.8 38.736C54.772 39.1093 54.758 39.4547 54.758 39.772C54.758 40.1173 54.7673 40.444 54.786 40.752C54.814 41.06 54.8467 41.3867 54.884 41.732C54.968 41.5173 55.0567 41.2887 55.15 41.046C55.2433 40.8033 55.3367 40.5653 55.43 40.332C55.5327 40.0893 55.6213 39.8747 55.696 39.688L56.284 40.136C56.1627 40.472 56.032 40.8407 55.892 41.242C55.752 41.6433 55.626 42.0307 55.514 42.404C55.4113 42.768 55.3367 43.0573 55.29 43.272C55.2713 43.3747 55.2527 43.4867 55.234 43.608C55.2153 43.7293 55.2107 43.8273 55.22 43.902C55.2293 43.9767 55.234 44.056 55.234 44.14C55.2433 44.2333 55.2527 44.3173 55.262 44.392L54.254 44.462C54.114 43.9673 53.9927 43.3327 53.89 42.558C53.7873 41.774 53.736 40.9107 53.736 39.968C53.736 39.4547 53.7593 38.932 53.806 38.4C53.8527 37.8587 53.9133 37.336 53.988 36.832C54.0627 36.3187 54.1327 35.852 54.198 35.432C54.2727 35.0027 54.3287 34.6433 54.366 34.354C54.394 34.186 54.4173 34.018 54.436 33.85C54.4547 33.6727 54.464 33.5093 54.464 33.36L55.71 33.472ZM68.044 34.41C68.324 34.4193 68.562 34.4287 68.758 34.438C68.954 34.438 69.1313 34.438 69.29 34.438C69.402 34.438 69.6073 34.438 69.906 34.438C70.2047 34.438 70.564 34.438 70.984 34.438C71.4133 34.438 71.8707 34.438 72.356 34.438C72.8413 34.438 73.322 34.438 73.798 34.438C74.2833 34.438 74.736 34.438 75.156 34.438C75.576 34.438 75.9307 34.438 76.22 34.438C76.5093 34.438 76.7053 34.438 76.808 34.438C76.9573 34.438 77.144 34.438 77.368 34.438C77.6013 34.4287 77.8253 34.4193 78.04 34.41C78.0307 34.578 78.0213 34.76 78.012 34.956C78.012 35.1427 78.012 35.3247 78.012 35.502C78.012 35.5953 78.012 35.782 78.012 36.062C78.012 36.3327 78.012 36.664 78.012 37.056C78.012 37.448 78.012 37.8727 78.012 38.33C78.012 38.778 78.012 39.226 78.012 39.674C78.012 40.122 78.012 40.5373 78.012 40.92C78.012 41.3027 78.012 41.6293 78.012 41.9C78.012 42.1613 78.012 42.3293 78.012 42.404C78.012 42.5067 78.012 42.6467 78.012 42.824C78.012 43.0013 78.012 43.1787 78.012 43.356C78.0213 43.5333 78.026 43.692 78.026 43.832C78.0353 43.9627 78.04 44.0513 78.04 44.098H76.836C76.836 44.042 76.836 43.93 76.836 43.762C76.8453 43.5847 76.85 43.3887 76.85 43.174C76.8593 42.95 76.864 42.74 76.864 42.544C76.864 42.4787 76.864 42.3013 76.864 42.012C76.864 41.7227 76.864 41.368 76.864 40.948C76.864 40.5187 76.864 40.0613 76.864 39.576C76.864 39.0813 76.864 38.6007 76.864 38.134C76.864 37.658 76.864 37.224 76.864 36.832C76.864 36.44 76.864 36.1273 76.864 35.894C76.864 35.6607 76.864 35.544 76.864 35.544H69.206C69.206 35.544 69.206 35.6607 69.206 35.894C69.206 36.118 69.206 36.426 69.206 36.818C69.206 37.21 69.206 37.644 69.206 38.12C69.206 38.5867 69.206 39.0627 69.206 39.548C69.206 40.0333 69.206 40.4907 69.206 40.92C69.206 41.34 69.206 41.6947 69.206 41.984C69.206 42.2733 69.206 42.46 69.206 42.544C69.206 42.6653 69.206 42.8053 69.206 42.964C69.206 43.1227 69.206 43.2813 69.206 43.44C69.2153 43.5893 69.22 43.7247 69.22 43.846C69.2293 43.9673 69.234 44.0513 69.234 44.098H68.03C68.03 44.0513 68.03 43.9627 68.03 43.832C68.0393 43.692 68.044 43.5333 68.044 43.356C68.0533 43.1787 68.058 43.006 68.058 42.838C68.058 42.6607 68.058 42.5113 68.058 42.39C68.058 42.3153 68.058 42.1427 68.058 41.872C68.058 41.6013 68.058 41.27 68.058 40.878C68.058 40.486 68.058 40.066 68.058 39.618C68.058 39.1607 68.058 38.708 68.058 38.26C68.058 37.8027 68.058 37.3827 68.058 37C68.058 36.608 68.058 36.2813 68.058 36.02C68.058 35.7493 68.058 35.5767 68.058 35.502C68.058 35.334 68.058 35.152 68.058 34.956C68.058 34.76 68.0533 34.578 68.044 34.41ZM77.312 42.194V43.286H68.66V42.194H77.312ZM90.71 32.8C90.8313 32.9587 90.962 33.1547 91.102 33.388C91.242 33.612 91.3773 33.8407 91.508 34.074C91.6387 34.3073 91.7553 34.522 91.858 34.718L91.102 35.054C90.962 34.774 90.7847 34.4473 90.57 34.074C90.3553 33.7007 90.1547 33.3833 89.968 33.122L90.71 32.8ZM92.25 32.24C92.3713 32.408 92.502 32.6087 92.642 32.842C92.7913 33.0753 92.936 33.3087 93.076 33.542C93.216 33.766 93.3327 33.9667 93.426 34.144L92.67 34.48C92.5207 34.172 92.3387 33.8407 92.124 33.486C91.9093 33.1313 91.704 32.8233 91.508 32.562L92.25 32.24ZM91.634 35.586C91.578 35.6793 91.522 35.8007 91.466 35.95C91.41 36.09 91.3587 36.216 91.312 36.328C91.1907 36.7947 91.0133 37.308 90.78 37.868C90.556 38.4187 90.2807 38.9787 89.954 39.548C89.6273 40.108 89.254 40.6447 88.834 41.158C88.1993 41.9327 87.4387 42.6373 86.552 43.272C85.6653 43.9067 84.5687 44.4713 83.262 44.966L82.24 44.042C83.0987 43.79 83.8687 43.4867 84.55 43.132C85.2313 42.768 85.8427 42.3667 86.384 41.928C86.9347 41.4893 87.42 41.0227 87.84 40.528C88.204 40.0987 88.5353 39.6273 88.834 39.114C89.1327 38.6007 89.3893 38.0873 89.604 37.574C89.828 37.0513 89.982 36.58 90.066 36.16H84.886L85.334 35.152C85.446 35.152 85.656 35.152 85.964 35.152C86.272 35.152 86.622 35.152 87.014 35.152C87.4153 35.152 87.812 35.152 88.204 35.152C88.596 35.152 88.9367 35.152 89.226 35.152C89.5153 35.152 89.7067 35.152 89.8 35.152C89.9867 35.152 90.1547 35.1427 90.304 35.124C90.4627 35.1053 90.598 35.0727 90.71 35.026L91.634 35.586ZM86.944 33.472C86.832 33.6587 86.72 33.8547 86.608 34.06C86.496 34.2653 86.4027 34.4333 86.328 34.564C86.0573 35.0773 85.712 35.6327 85.292 36.23C84.872 36.818 84.368 37.406 83.78 37.994C83.2013 38.5727 82.5387 39.1093 81.792 39.604L80.812 38.89C81.4187 38.526 81.96 38.1387 82.436 37.728C82.9213 37.308 83.3413 36.8833 83.696 36.454C84.06 36.0247 84.368 35.614 84.62 35.222C84.872 34.8207 85.0727 34.466 85.222 34.158C85.2967 34.0367 85.376 33.8687 85.46 33.654C85.5533 33.43 85.6187 33.2247 85.656 33.038L86.944 33.472ZM107.034 34.536C106.978 34.6013 106.913 34.6807 106.838 34.774C106.773 34.8673 106.712 34.956 106.656 35.04C106.479 35.3573 106.213 35.7493 105.858 36.216C105.513 36.6733 105.111 37.1447 104.654 37.63C104.197 38.106 103.702 38.5307 103.17 38.904L102.246 38.162C102.573 37.9753 102.89 37.7513 103.198 37.49C103.515 37.2193 103.809 36.9393 104.08 36.65C104.36 36.3513 104.603 36.062 104.808 35.782C105.023 35.4927 105.191 35.2407 105.312 35.026C105.163 35.026 104.92 35.026 104.584 35.026C104.257 35.026 103.865 35.026 103.408 35.026C102.96 35.026 102.479 35.026 101.966 35.026C101.453 35.026 100.944 35.026 100.44 35.026C99.936 35.026 99.4647 35.026 99.026 35.026C98.5873 35.026 98.2187 35.026 97.92 35.026C97.6213 35.026 97.4253 35.026 97.332 35.026C97.0707 35.026 96.8093 35.0353 96.548 35.054C96.2867 35.0633 96.016 35.082 95.736 35.11V33.836C95.9787 33.8733 96.24 33.906 96.52 33.934C96.8 33.9527 97.0707 33.962 97.332 33.962C97.4253 33.962 97.626 33.962 97.934 33.962C98.242 33.962 98.6153 33.962 99.054 33.962C99.502 33.962 99.9873 33.962 100.51 33.962C101.033 33.962 101.551 33.962 102.064 33.962C102.587 33.962 103.077 33.962 103.534 33.962C103.991 33.962 104.379 33.962 104.696 33.962C105.023 33.962 105.247 33.962 105.368 33.962C105.461 33.962 105.569 33.962 105.69 33.962C105.821 33.9527 105.947 33.9387 106.068 33.92C106.189 33.9013 106.283 33.8873 106.348 33.878L107.034 34.536ZM101.448 36.384C101.448 37.14 101.425 37.8493 101.378 38.512C101.331 39.1747 101.238 39.7953 101.098 40.374C100.958 40.9527 100.743 41.4893 100.454 41.984C100.174 42.4693 99.796 42.9267 99.32 43.356C98.844 43.776 98.2513 44.1633 97.542 44.518L96.506 43.678C96.702 43.6127 96.912 43.5287 97.136 43.426C97.36 43.314 97.57 43.188 97.766 43.048C98.3167 42.7213 98.7553 42.3527 99.082 41.942C99.4087 41.5313 99.6513 41.088 99.81 40.612C99.978 40.1267 100.09 39.618 100.146 39.086C100.211 38.5447 100.244 37.9847 100.244 37.406C100.244 37.2287 100.239 37.0607 100.23 36.902C100.23 36.7433 100.216 36.5707 100.188 36.384H101.448ZM115.574 32.786C115.546 33.0007 115.523 33.192 115.504 33.36C115.495 33.528 115.49 33.6867 115.49 33.836C115.49 33.948 115.49 34.1207 115.49 34.354C115.49 34.5873 115.49 34.83 115.49 35.082C115.49 35.334 115.49 35.544 115.49 35.712H114.3C114.3 35.5253 114.3 35.306 114.3 35.054C114.3 34.802 114.3 34.564 114.3 34.34C114.3 34.116 114.3 33.948 114.3 33.836C114.3 33.6867 114.295 33.528 114.286 33.36C114.286 33.192 114.267 33.0007 114.23 32.786H115.574ZM120.348 35.502C120.311 35.6047 120.273 35.74 120.236 35.908C120.199 36.0667 120.166 36.2113 120.138 36.342C120.101 36.622 120.04 36.9347 119.956 37.28C119.881 37.6253 119.788 37.9893 119.676 38.372C119.564 38.7453 119.433 39.1187 119.284 39.492C119.135 39.856 118.962 40.2107 118.766 40.556C118.421 41.1627 117.977 41.7227 117.436 42.236C116.895 42.7493 116.269 43.1973 115.56 43.58C114.86 43.9627 114.081 44.2753 113.222 44.518L112.312 43.468C112.545 43.4307 112.788 43.3793 113.04 43.314C113.301 43.2393 113.544 43.16 113.768 43.076C114.235 42.9267 114.706 42.7167 115.182 42.446C115.658 42.166 116.101 41.844 116.512 41.48C116.932 41.1067 117.282 40.7007 117.562 40.262C117.814 39.8607 118.029 39.422 118.206 38.946C118.393 38.47 118.542 37.9893 118.654 37.504C118.766 37.0187 118.845 36.5753 118.892 36.174H111.066C111.066 36.3233 111.066 36.5147 111.066 36.748C111.066 36.9813 111.066 37.2287 111.066 37.49C111.066 37.742 111.066 37.98 111.066 38.204C111.066 38.4187 111.066 38.5773 111.066 38.68C111.066 38.8107 111.071 38.9553 111.08 39.114C111.089 39.2727 111.103 39.408 111.122 39.52H109.904C109.923 39.3893 109.932 39.24 109.932 39.072C109.941 38.904 109.946 38.7547 109.946 38.624C109.946 38.512 109.946 38.344 109.946 38.12C109.946 37.896 109.946 37.658 109.946 37.406C109.946 37.1447 109.946 36.902 109.946 36.678C109.946 36.454 109.946 36.2813 109.946 36.16C109.946 36.0107 109.941 35.8333 109.932 35.628C109.932 35.4227 109.923 35.2407 109.904 35.082C110.109 35.1007 110.315 35.1147 110.52 35.124C110.735 35.1333 110.963 35.138 111.206 35.138H118.626C118.887 35.138 119.088 35.1287 119.228 35.11C119.377 35.082 119.499 35.054 119.592 35.026L120.348 35.502ZM126.718 42.768C126.718 42.6373 126.718 42.376 126.718 41.984C126.718 41.5827 126.718 41.1113 126.718 40.57C126.718 40.0193 126.718 39.4453 126.718 38.848C126.718 38.2413 126.718 37.6533 126.718 37.084C126.718 36.5147 126.718 36.0107 126.718 35.572C126.718 35.1333 126.718 34.816 126.718 34.62C126.718 34.424 126.709 34.186 126.69 33.906C126.671 33.626 126.643 33.3787 126.606 33.164H127.978C127.959 33.3693 127.936 33.612 127.908 33.892C127.889 34.172 127.88 34.4147 127.88 34.62C127.88 34.984 127.88 35.4227 127.88 35.936C127.88 36.44 127.88 36.9813 127.88 37.56C127.88 38.1293 127.88 38.6987 127.88 39.268C127.889 39.828 127.894 40.3553 127.894 40.85C127.894 41.3353 127.894 41.7507 127.894 42.096C127.894 42.432 127.894 42.656 127.894 42.768C127.894 42.9173 127.894 43.09 127.894 43.286C127.903 43.482 127.917 43.6827 127.936 43.888C127.955 44.084 127.969 44.2613 127.978 44.42H126.62C126.657 44.196 126.681 43.93 126.69 43.622C126.709 43.314 126.718 43.0293 126.718 42.768ZM127.642 36.832C128.099 36.972 128.603 37.14 129.154 37.336C129.714 37.5227 130.283 37.7233 130.862 37.938C131.441 38.1527 131.987 38.372 132.5 38.596C133.023 38.8107 133.475 39.016 133.858 39.212L133.382 40.402C132.981 40.178 132.528 39.9587 132.024 39.744C131.52 39.52 131.002 39.3007 130.47 39.086C129.947 38.8713 129.439 38.68 128.944 38.512C128.459 38.3347 128.025 38.19 127.642 38.078V36.832ZM140.76 33.094C140.723 33.3273 140.695 33.5653 140.676 33.808C140.657 34.0413 140.643 34.2747 140.634 34.508C140.615 34.9 140.597 35.3853 140.578 35.964C140.559 36.5427 140.541 37.1587 140.522 37.812C140.503 38.456 140.489 39.1 140.48 39.744C140.471 40.388 140.466 40.9667 140.466 41.48C140.466 41.9933 140.564 42.404 140.76 42.712C140.956 43.02 141.227 43.2393 141.572 43.37C141.917 43.5007 142.314 43.566 142.762 43.566C143.397 43.566 143.971 43.4867 144.484 43.328C144.997 43.16 145.455 42.9407 145.856 42.67C146.257 42.39 146.612 42.0773 146.92 41.732C147.237 41.3867 147.522 41.032 147.774 40.668L148.572 41.62C148.329 41.956 148.031 42.306 147.676 42.67C147.331 43.0247 146.92 43.356 146.444 43.664C145.968 43.972 145.417 44.224 144.792 44.42C144.176 44.616 143.485 44.714 142.72 44.714C142.057 44.714 141.469 44.6113 140.956 44.406C140.443 44.2007 140.041 43.8693 139.752 43.412C139.463 42.9547 139.318 42.348 139.318 41.592C139.318 41.172 139.323 40.71 139.332 40.206C139.341 39.6927 139.355 39.1653 139.374 38.624C139.393 38.0827 139.407 37.5553 139.416 37.042C139.425 36.5193 139.435 36.0387 139.444 35.6C139.453 35.1613 139.458 34.7973 139.458 34.508C139.458 34.2467 139.449 33.9947 139.43 33.752C139.411 33.5093 139.383 33.2853 139.346 33.08L140.76 33.094ZM158.022 32.884C158.003 33.0053 157.985 33.1407 157.966 33.29C157.957 33.4393 157.947 33.6167 157.938 33.822C157.938 33.962 157.933 34.172 157.924 34.452C157.924 34.732 157.924 35.0493 157.924 35.404C157.924 35.7493 157.924 36.0993 157.924 36.454C157.924 36.8087 157.924 37.1353 157.924 37.434C157.924 37.9007 157.933 38.3907 157.952 38.904C157.971 39.4173 157.994 39.9167 158.022 40.402C158.05 40.8873 158.073 41.3307 158.092 41.732C158.111 42.1333 158.12 42.4507 158.12 42.684C158.12 43.0107 158.041 43.3233 157.882 43.622C157.733 43.9207 157.476 44.1633 157.112 44.35C156.757 44.546 156.272 44.644 155.656 44.644C154.648 44.644 153.878 44.4667 153.346 44.112C152.814 43.7667 152.548 43.258 152.548 42.586C152.548 42.1567 152.674 41.7833 152.926 41.466C153.187 41.1487 153.561 40.9013 154.046 40.724C154.531 40.5373 155.11 40.444 155.782 40.444C156.519 40.444 157.21 40.5327 157.854 40.71C158.507 40.878 159.105 41.0927 159.646 41.354C160.187 41.6153 160.668 41.8907 161.088 42.18C161.508 42.46 161.853 42.712 162.124 42.936L161.48 43.93C161.163 43.6313 160.794 43.3327 160.374 43.034C159.963 42.7353 159.511 42.46 159.016 42.208C158.531 41.956 158.003 41.7553 157.434 41.606C156.874 41.4473 156.277 41.368 155.642 41.368C154.97 41.368 154.457 41.48 154.102 41.704C153.757 41.928 153.584 42.2033 153.584 42.53C153.584 42.7353 153.649 42.9267 153.78 43.104C153.911 43.272 154.121 43.4073 154.41 43.51C154.699 43.6127 155.073 43.664 155.53 43.664C155.801 43.664 156.048 43.6313 156.272 43.566C156.496 43.4913 156.673 43.3653 156.804 43.188C156.944 43.0107 157.014 42.7633 157.014 42.446C157.014 42.1753 157.005 41.8253 156.986 41.396C156.977 40.9573 156.963 40.4953 156.944 40.01C156.925 39.5153 156.907 39.0393 156.888 38.582C156.879 38.1247 156.874 37.742 156.874 37.434C156.874 37.1167 156.874 36.7947 156.874 36.468C156.874 36.132 156.874 35.8007 156.874 35.474C156.874 35.1473 156.874 34.8347 156.874 34.536C156.883 34.2373 156.888 33.9667 156.888 33.724C156.888 33.612 156.883 33.4673 156.874 33.29C156.865 33.1127 156.851 32.9773 156.832 32.884H158.022ZM152.66 34.41C152.893 34.4473 153.164 34.4847 153.472 34.522C153.78 34.5593 154.102 34.5967 154.438 34.634C154.783 34.662 155.11 34.6853 155.418 34.704C155.735 34.7133 156.011 34.718 156.244 34.718C157.131 34.718 158.036 34.6853 158.96 34.62C159.893 34.5547 160.813 34.4473 161.718 34.298L161.704 35.32C161.191 35.376 160.631 35.432 160.024 35.488C159.417 35.544 158.792 35.5907 158.148 35.628C157.513 35.6653 156.883 35.684 156.258 35.684C155.931 35.684 155.544 35.67 155.096 35.642C154.648 35.614 154.205 35.5813 153.766 35.544C153.337 35.5067 152.973 35.474 152.674 35.446L152.66 34.41ZM152.59 37.378C152.842 37.4153 153.122 37.4527 153.43 37.49C153.738 37.5273 154.055 37.5553 154.382 37.574C154.709 37.5927 155.021 37.6113 155.32 37.63C155.619 37.6393 155.885 37.644 156.118 37.644C156.799 37.644 157.457 37.63 158.092 37.602C158.736 37.5647 159.366 37.518 159.982 37.462C160.607 37.3967 161.223 37.3173 161.83 37.224L161.816 38.274C161.349 38.3393 160.883 38.3953 160.416 38.442C159.959 38.4793 159.497 38.512 159.03 38.54C158.573 38.568 158.101 38.5913 157.616 38.61C157.14 38.6193 156.636 38.624 156.104 38.624C155.787 38.624 155.418 38.6147 154.998 38.596C154.587 38.5773 154.167 38.554 153.738 38.526C153.318 38.498 152.94 38.4653 152.604 38.428L152.59 37.378ZM172.778 32.912C172.778 32.9587 172.769 33.0427 172.75 33.164C172.741 33.2853 172.731 33.4067 172.722 33.528C172.722 33.64 172.717 33.7287 172.708 33.794C172.699 33.9713 172.694 34.214 172.694 34.522C172.694 34.83 172.694 35.166 172.694 35.53C172.694 35.894 172.694 36.2627 172.694 36.636C172.703 37.0093 172.708 37.3593 172.708 37.686C172.717 38.0127 172.722 38.288 172.722 38.512L171.644 37.98C171.644 37.8493 171.644 37.6533 171.644 37.392C171.644 37.1213 171.644 36.8133 171.644 36.468C171.644 36.1133 171.639 35.7633 171.63 35.418C171.63 35.0727 171.625 34.7553 171.616 34.466C171.607 34.1767 171.597 33.9527 171.588 33.794C171.579 33.6073 171.565 33.43 171.546 33.262C171.527 33.0847 171.513 32.968 171.504 32.912H172.778ZM165.344 34.858C165.727 34.858 166.161 34.8533 166.646 34.844C167.131 34.8253 167.645 34.8067 168.186 34.788C168.737 34.7693 169.292 34.7553 169.852 34.746C170.412 34.7367 170.949 34.7273 171.462 34.718C171.985 34.7087 172.465 34.704 172.904 34.704C173.324 34.704 173.744 34.704 174.164 34.704C174.584 34.704 174.976 34.704 175.34 34.704C175.713 34.704 176.04 34.7087 176.32 34.718C176.609 34.718 176.838 34.718 177.006 34.718L176.992 35.754C176.6 35.7353 176.073 35.7213 175.41 35.712C174.757 35.6933 173.917 35.684 172.89 35.684C172.283 35.684 171.649 35.6933 170.986 35.712C170.333 35.7213 169.675 35.7353 169.012 35.754C168.349 35.7727 167.705 35.8007 167.08 35.838C166.464 35.866 165.895 35.8987 165.372 35.936L165.344 34.858ZM172.694 38.932C172.694 39.548 172.601 40.066 172.414 40.486C172.237 40.906 171.985 41.2187 171.658 41.424C171.341 41.6293 170.967 41.732 170.538 41.732C170.249 41.732 169.964 41.6853 169.684 41.592C169.413 41.4893 169.166 41.34 168.942 41.144C168.727 40.9387 168.555 40.6913 168.424 40.402C168.303 40.1033 168.242 39.7673 168.242 39.394C168.242 38.9273 168.354 38.512 168.578 38.148C168.802 37.784 169.101 37.4947 169.474 37.28C169.857 37.0653 170.267 36.958 170.706 36.958C171.257 36.958 171.709 37.084 172.064 37.336C172.428 37.5787 172.703 37.9147 172.89 38.344C173.077 38.764 173.17 39.2447 173.17 39.786C173.17 40.2527 173.1 40.7287 172.96 41.214C172.829 41.6993 172.605 42.166 172.288 42.614C171.98 43.062 171.555 43.4727 171.014 43.846C170.482 44.21 169.805 44.5133 168.984 44.756L168.046 43.832C168.681 43.6827 169.25 43.4913 169.754 43.258C170.258 43.0247 170.683 42.74 171.028 42.404C171.373 42.068 171.635 41.676 171.812 41.228C171.999 40.78 172.092 40.2667 172.092 39.688C172.092 39.0533 171.957 38.596 171.686 38.316C171.415 38.036 171.089 37.896 170.706 37.896C170.463 37.896 170.235 37.9567 170.02 38.078C169.805 38.19 169.628 38.358 169.488 38.582C169.357 38.806 169.292 39.072 169.292 39.38C169.292 39.8187 169.432 40.1593 169.712 40.402C170.001 40.6447 170.337 40.766 170.72 40.766C171.009 40.766 171.257 40.6867 171.462 40.528C171.667 40.36 171.812 40.1127 171.896 39.786C171.989 39.45 171.999 39.0347 171.924 38.54L172.694 38.932ZM184.132 33.08C184.104 33.2013 184.076 33.3367 184.048 33.486C184.02 33.626 183.992 33.766 183.964 33.906C183.936 34.074 183.894 34.3027 183.838 34.592C183.791 34.8813 183.74 35.1893 183.684 35.516C183.628 35.8333 183.563 36.1367 183.488 36.426C183.395 36.8273 183.278 37.28 183.138 37.784C182.998 38.2787 182.839 38.806 182.662 39.366C182.485 39.926 182.284 40.5 182.06 41.088C181.836 41.6667 181.589 42.2453 181.318 42.824C181.047 43.3933 180.753 43.93 180.436 44.434L179.288 43.986C179.615 43.5567 179.913 43.076 180.184 42.544C180.464 42.012 180.721 41.4613 180.954 40.892C181.187 40.3133 181.397 39.744 181.584 39.184C181.78 38.624 181.943 38.106 182.074 37.63C182.205 37.154 182.307 36.7433 182.382 36.398C182.513 35.838 182.62 35.2593 182.704 34.662C182.788 34.0553 182.83 33.4813 182.83 32.94L184.132 33.08ZM188.948 34.564C189.172 34.8533 189.405 35.2127 189.648 35.642C189.9 36.0713 190.143 36.5287 190.376 37.014C190.619 37.4993 190.838 37.966 191.034 38.414C191.23 38.862 191.389 39.2493 191.51 39.576L190.418 40.094C190.315 39.7393 190.175 39.3333 189.998 38.876C189.821 38.4093 189.615 37.938 189.382 37.462C189.158 36.9767 188.92 36.524 188.668 36.104C188.425 35.6747 188.178 35.3153 187.926 35.026L188.948 34.564ZM179.092 36.146C179.307 36.1647 179.512 36.174 179.708 36.174C179.904 36.1647 180.114 36.1553 180.338 36.146C180.553 36.1367 180.823 36.1227 181.15 36.104C181.477 36.076 181.831 36.048 182.214 36.02C182.606 35.992 182.989 35.964 183.362 35.936C183.745 35.8987 184.095 35.8707 184.412 35.852C184.739 35.824 184.995 35.81 185.182 35.81C185.602 35.81 185.98 35.8753 186.316 36.006C186.661 36.1367 186.937 36.3747 187.142 36.72C187.347 37.0653 187.45 37.5507 187.45 38.176C187.45 38.7267 187.422 39.324 187.366 39.968C187.319 40.6027 187.235 41.2093 187.114 41.788C186.993 42.3667 186.834 42.8473 186.638 43.23C186.423 43.706 186.143 44.0187 185.798 44.168C185.453 44.3267 185.051 44.406 184.594 44.406C184.333 44.406 184.048 44.3827 183.74 44.336C183.432 44.2987 183.166 44.252 182.942 44.196L182.76 43.034C182.965 43.09 183.171 43.1413 183.376 43.188C183.591 43.2347 183.796 43.2673 183.992 43.286C184.188 43.3047 184.351 43.314 184.482 43.314C184.734 43.314 184.963 43.272 185.168 43.188C185.383 43.0947 185.56 42.8987 185.7 42.6C185.849 42.2827 185.971 41.886 186.064 41.41C186.167 40.9247 186.241 40.4113 186.288 39.87C186.344 39.3287 186.372 38.8107 186.372 38.316C186.372 37.8773 186.311 37.5553 186.19 37.35C186.069 37.1353 185.896 36.9907 185.672 36.916C185.448 36.832 185.187 36.79 184.888 36.79C184.645 36.79 184.323 36.8087 183.922 36.846C183.521 36.874 183.091 36.9113 182.634 36.958C182.186 37.0047 181.766 37.0513 181.374 37.098C180.982 37.1353 180.679 37.168 180.464 37.196C180.305 37.2147 180.1 37.2427 179.848 37.28C179.605 37.308 179.391 37.336 179.204 37.364L179.092 36.146ZM198.23 40.612C198.155 40.2293 198.169 39.884 198.272 39.576C198.384 39.268 198.547 38.9927 198.762 38.75C198.986 38.498 199.229 38.2693 199.49 38.064C199.761 37.8493 200.017 37.6393 200.26 37.434C200.503 37.2287 200.703 37.0187 200.862 36.804C201.021 36.58 201.1 36.3373 201.1 36.076C201.1 35.7493 201.021 35.46 200.862 35.208C200.703 34.956 200.47 34.76 200.162 34.62C199.854 34.4707 199.457 34.396 198.972 34.396C198.496 34.396 198.034 34.5033 197.586 34.718C197.147 34.9233 196.727 35.2407 196.326 35.67L195.57 34.97C196.037 34.4753 196.555 34.0833 197.124 33.794C197.693 33.4953 198.356 33.346 199.112 33.346C199.775 33.346 200.344 33.4533 200.82 33.668C201.305 33.8827 201.679 34.186 201.94 34.578C202.211 34.9607 202.346 35.4227 202.346 35.964C202.346 36.3187 202.267 36.6313 202.108 36.902C201.949 37.1727 201.744 37.42 201.492 37.644C201.249 37.868 200.993 38.0873 200.722 38.302C200.451 38.5073 200.199 38.722 199.966 38.946C199.742 39.17 199.569 39.4173 199.448 39.688C199.336 39.9587 199.313 40.2667 199.378 40.612H198.23ZM198.832 44.07C198.58 44.07 198.365 43.986 198.188 43.818C198.011 43.65 197.922 43.426 197.922 43.146C197.922 42.866 198.011 42.642 198.188 42.474C198.365 42.2967 198.58 42.208 198.832 42.208C199.075 42.208 199.285 42.2967 199.462 42.474C199.639 42.642 199.728 42.866 199.728 43.146C199.728 43.426 199.639 43.65 199.462 43.818C199.285 43.986 199.075 44.07 198.832 44.07Z" fill="black"/>
<path d="M64.1022 59.9062L63.4772 59.267L67.284 55.3892L67.909 56.0284L64.1022 59.9062ZM67.284 59.9062L63.4772 56.0284L64.1022 55.3892L67.909 59.267L67.284 59.9062ZM63.0084 57.6193C63.0084 57.4631 63.0546 57.3317 63.1469 57.2251C63.2393 57.1186 63.3778 57.0653 63.5624 57.0653C63.7542 57.0653 63.8962 57.1186 63.9885 57.2251C64.0832 57.3317 64.1306 57.4631 64.1306 57.6193C64.1306 57.7685 64.0832 57.8939 63.9885 57.9957C63.8962 58.0952 63.7542 58.1449 63.5624 58.1449C63.3778 58.1449 63.2393 58.0952 63.1469 57.9957C63.0546 57.8939 63.0084 57.7685 63.0084 57.6193ZM65.0965 59.7642C65.0965 59.6151 65.1427 59.4884 65.235 59.3842C65.3273 59.2777 65.4658 59.2244 65.6505 59.2244C65.8351 59.2244 65.976 59.2777 66.0731 59.3842C66.1701 59.4884 66.2187 59.6151 66.2187 59.7642C66.2187 59.9134 66.1701 60.0412 66.0731 60.1477C65.976 60.2519 65.8351 60.304 65.6505 60.304C65.4658 60.304 65.3273 60.2519 65.235 60.1477C65.1427 60.0412 65.0965 59.9134 65.0965 59.7642ZM65.0965 55.5312C65.0965 55.3821 65.1427 55.2554 65.235 55.1513C65.3273 55.0447 65.4658 54.9915 65.6505 54.9915C65.8351 54.9915 65.976 55.0447 66.0731 55.1513C66.1701 55.2554 66.2187 55.3821 66.2187 55.5312C66.2187 55.6804 66.1701 55.8082 66.0731 55.9148C65.976 56.0189 65.8351 56.071 65.6505 56.071C65.4658 56.071 65.3273 56.0189 65.235 55.9148C65.1427 55.8082 65.0965 55.6804 65.0965 55.5312ZM67.1704 57.6193C67.1704 57.4631 67.2189 57.3317 67.316 57.2251C67.413 57.1186 67.5539 57.0653 67.7385 57.0653C67.9232 57.0653 68.0641 57.1186 68.1611 57.2251C68.2582 57.3317 68.3067 57.4631 68.3067 57.6193C68.3067 57.7685 68.2582 57.8939 68.1611 57.9957C68.0641 58.0952 67.9232 58.1449 67.7385 58.1449C67.5539 58.1449 67.413 58.0952 67.316 57.9957C67.2189 57.8939 67.1704 57.7685 67.1704 57.6193ZM70.1957 55.14H73.0857V55.72H70.1957V55.14ZM70.1957 56.84H73.0857V57.41H70.1957V56.84ZM70.1957 58.57H73.0857V59.17H70.1957V58.57ZM74.4557 57.33H78.2557V57.99H74.4557V57.33ZM70.7157 53.49H72.3657V54.09H70.7157V53.49ZM73.8057 53.11H77.7157V53.74H73.8057V53.11ZM73.6857 59.2H78.4357V59.87H73.6857V59.2ZM75.8057 56.31H76.5157V61.76H75.8057V56.31ZM71.4257 55.42H71.9757V58.82H71.4257V55.42ZM77.4857 53.11H78.1657C78.1657 53.11 78.1623 53.1433 78.1557 53.21C78.1557 53.2767 78.1523 53.3367 78.1457 53.39C78.1257 53.9433 78.099 54.3933 78.0657 54.74C78.0323 55.0867 77.9923 55.3533 77.9457 55.54C77.899 55.7267 77.839 55.86 77.7657 55.94C77.7057 56.02 77.6323 56.08 77.5457 56.12C77.459 56.1533 77.3523 56.1767 77.2257 56.19C77.1257 56.2033 76.979 56.21 76.7857 56.21C76.5923 56.2033 76.3923 56.1933 76.1857 56.18C76.179 56.0867 76.159 55.98 76.1257 55.86C76.099 55.74 76.059 55.64 76.0057 55.56C76.2057 55.5733 76.389 55.5833 76.5557 55.59C76.7223 55.5967 76.839 55.6 76.9057 55.6C76.979 55.6 77.039 55.5967 77.0857 55.59C77.1323 55.5767 77.1723 55.55 77.2057 55.51C77.2457 55.4567 77.2823 55.35 77.3157 55.19C77.349 55.03 77.379 54.79 77.4057 54.47C77.4323 54.15 77.459 53.73 77.4857 53.21V53.11ZM74.4957 56.4L75.1457 56.52C75.039 56.9867 74.9023 57.4367 74.7357 57.87C74.569 58.2967 74.379 58.66 74.1657 58.96C74.1257 58.9267 74.069 58.8933 73.9957 58.86C73.9223 58.82 73.849 58.7833 73.7757 58.75C73.7023 58.71 73.6357 58.6767 73.5757 58.65C73.7957 58.3633 73.9823 58.0233 74.1357 57.63C74.289 57.23 74.409 56.82 74.4957 56.4ZM70.6957 52.59L71.3857 52.74C71.259 53.1933 71.109 53.6333 70.9357 54.06C70.7623 54.4867 70.569 54.8867 70.3557 55.26C70.149 55.6267 69.9257 55.95 69.6857 56.23C69.6523 56.19 69.599 56.1433 69.5257 56.09C69.459 56.03 69.389 55.9733 69.3157 55.92C69.2423 55.86 69.179 55.8133 69.1257 55.78C69.479 55.4 69.789 54.93 70.0557 54.37C70.329 53.8033 70.5423 53.21 70.6957 52.59ZM69.8957 55.14H70.5257V57.8C70.5257 58.1 70.5123 58.4267 70.4857 58.78C70.4657 59.1333 70.4257 59.49 70.3657 59.85C70.3123 60.21 70.229 60.56 70.1157 60.9C70.009 61.2333 69.869 61.54 69.6957 61.82C69.6557 61.78 69.6023 61.7367 69.5357 61.69C69.469 61.65 69.399 61.61 69.3257 61.57C69.259 61.53 69.199 61.5 69.1457 61.48C69.3723 61.12 69.539 60.73 69.6457 60.31C69.7523 59.8833 69.819 59.4533 69.8457 59.02C69.879 58.58 69.8957 58.1733 69.8957 57.8V55.14ZM72.8757 55.14H73.5157V60.98C73.5157 61.16 73.489 61.3033 73.4357 61.41C73.389 61.5233 73.3023 61.61 73.1757 61.67C73.049 61.7233 72.879 61.7567 72.6657 61.77C72.4523 61.7833 72.169 61.79 71.8157 61.79C71.8023 61.7033 71.7723 61.5967 71.7257 61.47C71.679 61.3433 71.6323 61.2367 71.5857 61.15C71.8457 61.1567 72.0757 61.16 72.2757 61.16C72.4823 61.16 72.619 61.1567 72.6857 61.15C72.7523 61.15 72.799 61.1367 72.8257 61.11C72.859 61.0833 72.8757 61.0367 72.8757 60.97V55.14ZM75.2357 53.31H75.9257C75.8657 53.77 75.769 54.2 75.6357 54.6C75.5023 55 75.299 55.36 75.0257 55.68C74.759 55.9933 74.389 56.2533 73.9157 56.46C73.8757 56.38 73.8157 56.29 73.7357 56.19C73.6557 56.09 73.5757 56.01 73.4957 55.95C73.909 55.7767 74.2323 55.5567 74.4657 55.29C74.699 55.0167 74.8723 54.7133 74.9857 54.38C75.1057 54.04 75.189 53.6833 75.2357 53.31ZM72.1857 53.49H72.3357L72.4457 53.46L72.8857 53.74C72.779 54.0533 72.6423 54.38 72.4757 54.72C72.309 55.0533 72.149 55.3367 71.9957 55.57C71.9357 55.5233 71.8557 55.4733 71.7557 55.42C71.6623 55.36 71.579 55.3133 71.5057 55.28C71.5923 55.1333 71.679 54.9633 71.7657 54.77C71.8523 54.57 71.9323 54.37 72.0057 54.17C72.079 53.9633 72.139 53.78 72.1857 53.62V53.49ZM83.9257 56.89L84.5357 56.58C84.7223 56.82 84.909 57.0767 85.0957 57.35C85.2823 57.6233 85.449 57.8967 85.5957 58.17C85.749 58.4367 85.8657 58.6767 85.9457 58.89L85.2757 59.24C85.209 59.0267 85.1023 58.7833 84.9557 58.51C84.8157 58.2367 84.6557 57.96 84.4757 57.68C84.2957 57.3933 84.1123 57.13 83.9257 56.89ZM83.9757 54.41H87.7857V55.12H83.9757V54.41ZM87.4757 54.41H88.2057C88.2057 54.41 88.2057 54.4367 88.2057 54.49C88.2057 54.5367 88.2057 54.59 88.2057 54.65C88.2057 54.71 88.2023 54.7567 88.1957 54.79C88.1557 55.9233 88.1123 56.88 88.0657 57.66C88.0257 58.44 87.9757 59.0833 87.9157 59.59C87.8623 60.09 87.799 60.48 87.7257 60.76C87.6523 61.04 87.5623 61.24 87.4557 61.36C87.349 61.5067 87.2323 61.6067 87.1057 61.66C86.979 61.7133 86.8223 61.75 86.6357 61.77C86.469 61.79 86.2423 61.7967 85.9557 61.79C85.669 61.7833 85.3757 61.7733 85.0757 61.76C85.069 61.6467 85.0423 61.5167 84.9957 61.37C84.9557 61.23 84.9023 61.11 84.8357 61.01C85.169 61.0367 85.4757 61.0533 85.7557 61.06C86.0423 61.0667 86.2457 61.07 86.3657 61.07C86.4723 61.07 86.559 61.06 86.6257 61.04C86.6923 61.02 86.7523 60.9767 86.8057 60.91C86.8923 60.8233 86.969 60.6467 87.0357 60.38C87.1023 60.1067 87.1623 59.7233 87.2157 59.23C87.269 58.7367 87.3157 58.1067 87.3557 57.34C87.3957 56.5733 87.4357 55.65 87.4757 54.57V54.41ZM84.3557 52.59L85.1157 52.76C84.9757 53.24 84.8057 53.7133 84.6057 54.18C84.4123 54.64 84.199 55.07 83.9657 55.47C83.7323 55.87 83.489 56.2233 83.2357 56.53C83.1823 56.49 83.1157 56.4433 83.0357 56.39C82.9557 56.33 82.8723 56.2733 82.7857 56.22C82.699 56.16 82.6223 56.1133 82.5557 56.08C82.8223 55.8 83.0657 55.4767 83.2857 55.11C83.5123 54.7367 83.7157 54.3333 83.8957 53.9C84.0757 53.4667 84.229 53.03 84.3557 52.59ZM80.7557 52.6L81.4257 52.86C81.3057 53.1 81.1723 53.3533 81.0257 53.62C80.879 53.8867 80.7357 54.1433 80.5957 54.39C80.4557 54.63 80.319 54.8433 80.1857 55.03L79.6657 54.8C79.7923 54.6067 79.9223 54.3833 80.0557 54.13C80.189 53.87 80.319 53.6067 80.4457 53.34C80.5723 53.0667 80.6757 52.82 80.7557 52.6ZM81.9657 53.74L82.6257 54.02C82.3923 54.4 82.1323 54.8 81.8457 55.22C81.5657 55.6333 81.2823 56.0367 80.9957 56.43C80.709 56.8233 80.439 57.1633 80.1857 57.45L79.7057 57.2C79.899 56.9733 80.099 56.7167 80.3057 56.43C80.5123 56.1433 80.7157 55.8433 80.9157 55.53C81.1223 55.2167 81.3157 54.9067 81.4957 54.6C81.6757 54.2933 81.8323 54.0067 81.9657 53.74ZM79.1857 54.71L79.5557 54.21C79.7423 54.3633 79.9323 54.5333 80.1257 54.72C80.319 54.9067 80.4957 55.0933 80.6557 55.28C80.8157 55.46 80.939 55.6233 81.0257 55.77L80.6257 56.35C80.5323 56.19 80.4057 56.0133 80.2457 55.82C80.0923 55.6267 79.9223 55.4333 79.7357 55.24C79.549 55.0467 79.3657 54.87 79.1857 54.71ZM81.6457 56.06L82.2057 55.82C82.3523 56.04 82.4923 56.2733 82.6257 56.52C82.759 56.7667 82.8757 57.0067 82.9757 57.24C83.0823 57.4733 83.159 57.6833 83.2057 57.87L82.6157 58.15C82.5623 57.9633 82.4857 57.75 82.3857 57.51C82.2857 57.27 82.1723 57.0233 82.0457 56.77C81.919 56.5167 81.7857 56.28 81.6457 56.06ZM79.1657 57.07C79.6123 57.0567 80.149 57.04 80.7757 57.02C81.4023 56.9933 82.0457 56.9633 82.7057 56.93V57.55C82.0723 57.59 81.4523 57.6267 80.8457 57.66C80.239 57.6933 79.699 57.7233 79.2257 57.75L79.1657 57.07ZM81.9057 58.46L82.4657 58.27C82.6123 58.5767 82.749 58.91 82.8757 59.27C83.009 59.63 83.1023 59.94 83.1557 60.2L82.5357 60.41C82.489 60.1433 82.4057 59.83 82.2857 59.47C82.1657 59.1033 82.039 58.7667 81.9057 58.46ZM79.7157 58.32L80.3557 58.43C80.289 58.9033 80.1957 59.37 80.0757 59.83C79.9557 60.2833 79.8157 60.67 79.6557 60.99C79.609 60.9567 79.549 60.9233 79.4757 60.89C79.409 60.8567 79.3357 60.8233 79.2557 60.79C79.1823 60.75 79.1157 60.72 79.0557 60.7C79.229 60.3933 79.3657 60.03 79.4657 59.61C79.5723 59.1833 79.6557 58.7533 79.7157 58.32ZM80.8657 57.36H81.5457V61.82H80.8657V57.36ZM92.7957 55.09C93.0823 55.1167 93.3623 55.1367 93.6357 55.15C93.909 55.1633 94.1957 55.17 94.4957 55.17C95.0957 55.17 95.6923 55.1467 96.2857 55.1C96.879 55.0533 97.429 54.98 97.9357 54.88V55.65C97.4023 55.7367 96.839 55.8 96.2457 55.84C95.659 55.88 95.069 55.9033 94.4757 55.91C94.189 55.91 93.909 55.9033 93.6357 55.89C93.369 55.8767 93.089 55.86 92.7957 55.84V55.09ZM96.2957 53.3C96.2823 53.4 96.269 53.5 96.2557 53.6C96.249 53.7 96.2423 53.8 96.2357 53.9C96.229 54.02 96.2223 54.1733 96.2157 54.36C96.209 54.5467 96.2057 54.7467 96.2057 54.96C96.2057 55.1667 96.2057 55.37 96.2057 55.57C96.2057 55.95 96.2123 56.33 96.2257 56.71C96.239 57.09 96.2557 57.46 96.2757 57.82C96.2957 58.18 96.3123 58.52 96.3257 58.84C96.3457 59.1533 96.3557 59.44 96.3557 59.7C96.3557 59.9 96.3257 60.0967 96.2657 60.29C96.2123 60.4833 96.119 60.6567 95.9857 60.81C95.859 60.9633 95.6823 61.0833 95.4557 61.17C95.2357 61.2633 94.959 61.31 94.6257 61.31C93.9523 61.31 93.4357 61.1833 93.0757 60.93C92.7223 60.6767 92.5457 60.3267 92.5457 59.88C92.5457 59.6 92.6257 59.3467 92.7857 59.12C92.9523 58.8867 93.1857 58.7033 93.4857 58.57C93.7923 58.4367 94.1657 58.37 94.6057 58.37C95.0323 58.37 95.4223 58.42 95.7757 58.52C96.1357 58.6133 96.4657 58.74 96.7657 58.9C97.0723 59.0533 97.3523 59.2267 97.6057 59.42C97.859 59.6067 98.0923 59.7933 98.3057 59.98L97.8657 60.65C97.519 60.3167 97.169 60.0267 96.8157 59.78C96.469 59.5333 96.109 59.34 95.7357 59.2C95.3623 59.06 94.9657 58.99 94.5457 58.99C94.1657 58.99 93.8557 59.0667 93.6157 59.22C93.3823 59.3667 93.2657 59.56 93.2657 59.8C93.2657 60.0533 93.379 60.25 93.6057 60.39C93.8323 60.5233 94.1257 60.59 94.4857 60.59C94.7723 60.59 94.9923 60.5433 95.1457 60.45C95.3057 60.3567 95.4157 60.23 95.4757 60.07C95.5423 59.91 95.5757 59.72 95.5757 59.5C95.5757 59.32 95.569 59.0767 95.5557 58.77C95.5423 58.4633 95.5257 58.13 95.5057 57.77C95.4857 57.4033 95.469 57.03 95.4557 56.65C95.4423 56.27 95.4357 55.9133 95.4357 55.58C95.4357 55.24 95.4357 54.92 95.4357 54.62C95.4357 54.32 95.4357 54.0833 95.4357 53.91C95.4357 53.8233 95.4323 53.7233 95.4257 53.61C95.419 53.49 95.409 53.3867 95.3957 53.3H96.2957ZM91.3557 53.36C91.3357 53.4133 91.3123 53.4833 91.2857 53.57C91.2657 53.65 91.2457 53.7333 91.2257 53.82C91.2123 53.9067 91.199 53.98 91.1857 54.04C91.1457 54.2267 91.1023 54.45 91.0557 54.71C91.0157 54.9633 90.9723 55.24 90.9257 55.54C90.879 55.8333 90.8357 56.1333 90.7957 56.44C90.7623 56.74 90.7357 57.03 90.7157 57.31C90.6957 57.59 90.6857 57.8433 90.6857 58.07C90.6857 58.31 90.6923 58.54 90.7057 58.76C90.7257 58.98 90.7523 59.2133 90.7857 59.46C90.839 59.3067 90.899 59.1433 90.9657 58.97C91.0323 58.7967 91.099 58.6233 91.1657 58.45C91.239 58.2767 91.3023 58.1233 91.3557 57.99L91.7657 58.31C91.6857 58.5367 91.5957 58.7933 91.4957 59.08C91.4023 59.36 91.3123 59.63 91.2257 59.89C91.1457 60.1433 91.089 60.3533 91.0557 60.52C91.0423 60.5867 91.029 60.6633 91.0157 60.75C91.009 60.8367 91.009 60.91 91.0157 60.97C91.0157 61.0167 91.0157 61.0733 91.0157 61.14C91.0223 61.2067 91.029 61.2667 91.0357 61.32L90.3357 61.37C90.2357 61.01 90.1457 60.5633 90.0657 60.03C89.9923 59.49 89.9557 58.8833 89.9557 58.21C89.9557 57.8367 89.9723 57.45 90.0057 57.05C90.0457 56.6433 90.089 56.2467 90.1357 55.86C90.189 55.4733 90.239 55.12 90.2857 54.8C90.339 54.4733 90.3823 54.2067 90.4157 54C90.429 53.8867 90.4423 53.7667 90.4557 53.64C90.469 53.5133 90.4757 53.3967 90.4757 53.29L91.3557 53.36ZM104.046 53.91C104.012 53.8033 103.972 53.68 103.926 53.54C103.886 53.4 103.842 53.2633 103.796 53.13L104.646 53.02C104.679 53.2133 104.726 53.4333 104.786 53.68C104.846 53.92 104.916 54.1667 104.996 54.42C105.076 54.6667 105.156 54.8967 105.236 55.11C105.389 55.5433 105.582 55.9767 105.816 56.41C106.049 56.8367 106.269 57.1967 106.476 57.49C106.549 57.5833 106.622 57.6733 106.696 57.76C106.769 57.8467 106.842 57.9333 106.916 58.02L106.506 58.58C106.386 58.5533 106.226 58.5267 106.026 58.5C105.832 58.4733 105.619 58.45 105.386 58.43C105.159 58.4033 104.932 58.38 104.706 58.36C104.479 58.34 104.276 58.3233 104.096 58.31L104.156 57.64C104.342 57.6533 104.539 57.67 104.746 57.69C104.959 57.71 105.159 57.73 105.346 57.75C105.539 57.7633 105.696 57.7767 105.816 57.79C105.676 57.5767 105.526 57.3333 105.366 57.06C105.206 56.78 105.049 56.4867 104.896 56.18C104.749 55.8667 104.619 55.56 104.506 55.26C104.399 54.9667 104.309 54.7067 104.236 54.48C104.162 54.2533 104.099 54.0633 104.046 53.91ZM100.386 54.69C100.946 54.7567 101.486 54.8033 102.006 54.83C102.532 54.8567 103.029 54.8633 103.496 54.85C103.969 54.8367 104.396 54.81 104.776 54.77C105.042 54.7367 105.322 54.6967 105.616 54.65C105.916 54.6033 106.212 54.5433 106.506 54.47C106.799 54.3967 107.076 54.32 107.336 54.24L107.426 55.02C107.192 55.0933 106.936 55.1567 106.656 55.21C106.376 55.2633 106.096 55.3133 105.816 55.36C105.536 55.4067 105.272 55.4433 105.026 55.47C104.392 55.5433 103.682 55.5833 102.896 55.59C102.116 55.5967 101.286 55.5633 100.406 55.49L100.386 54.69ZM101.926 57.88C101.779 58.12 101.662 58.3533 101.576 58.58C101.496 58.8 101.456 59.03 101.456 59.27C101.456 59.7433 101.662 60.09 102.076 60.31C102.489 60.53 103.066 60.6433 103.806 60.65C104.319 60.6567 104.789 60.6367 105.216 60.59C105.649 60.5433 106.039 60.48 106.386 60.4L106.346 61.2C106.039 61.2533 105.672 61.3033 105.246 61.35C104.819 61.3967 104.326 61.42 103.766 61.42C103.132 61.4133 102.582 61.3333 102.116 61.18C101.656 61.0267 101.299 60.8 101.046 60.5C100.792 60.1933 100.666 59.8133 100.666 59.36C100.666 59.0867 100.709 58.8167 100.796 58.55C100.889 58.2767 101.006 57.9933 101.146 57.7L101.926 57.88ZM118.546 60.24C118.279 60.5067 117.992 60.7133 117.686 60.86C117.379 61 117.052 61.07 116.706 61.07C116.379 61.07 116.112 60.9633 115.906 60.75C115.699 60.5367 115.596 60.2233 115.596 59.81C115.596 59.53 115.616 59.2267 115.656 58.9C115.696 58.5733 115.739 58.24 115.786 57.9C115.832 57.5533 115.876 57.2267 115.916 56.92C115.956 56.6067 115.976 56.3267 115.976 56.08C115.976 55.7933 115.906 55.5867 115.766 55.46C115.626 55.3267 115.426 55.26 115.166 55.26C114.932 55.26 114.672 55.33 114.386 55.47C114.099 55.6033 113.806 55.7867 113.506 56.02C113.206 56.2467 112.912 56.5033 112.626 56.79C112.339 57.07 112.076 57.35 111.836 57.63L111.856 56.64C111.982 56.5067 112.142 56.35 112.336 56.17C112.536 55.99 112.756 55.8033 112.996 55.61C113.242 55.4167 113.502 55.2367 113.776 55.07C114.049 54.9033 114.319 54.77 114.586 54.67C114.859 54.57 115.119 54.52 115.366 54.52C115.679 54.52 115.939 54.5767 116.146 54.69C116.352 54.7967 116.506 54.9533 116.606 55.16C116.706 55.36 116.756 55.5933 116.756 55.86C116.756 56.1067 116.736 56.3933 116.696 56.72C116.662 57.04 116.619 57.3733 116.566 57.72C116.519 58.0667 116.476 58.4033 116.436 58.73C116.402 59.0567 116.386 59.3467 116.386 59.6C116.386 59.7667 116.426 59.91 116.506 60.03C116.592 60.15 116.726 60.21 116.906 60.21C117.146 60.21 117.392 60.14 117.646 60C117.906 59.8533 118.162 59.6467 118.416 59.38L118.546 60.24ZM111.826 55.46C111.746 55.4667 111.622 55.4833 111.456 55.51C111.296 55.53 111.112 55.5533 110.906 55.58C110.699 55.6067 110.489 55.6367 110.276 55.67C110.062 55.6967 109.862 55.7233 109.676 55.75L109.596 54.93C109.702 54.9367 109.806 54.94 109.906 54.94C110.012 54.9333 110.126 54.9267 110.246 54.92C110.386 54.9133 110.556 54.9 110.756 54.88C110.962 54.8533 111.176 54.8267 111.396 54.8C111.622 54.7667 111.832 54.7333 112.026 54.7C112.226 54.66 112.382 54.62 112.496 54.58L112.786 54.93C112.726 55.01 112.659 55.11 112.586 55.23C112.512 55.3433 112.439 55.46 112.366 55.58C112.292 55.7 112.229 55.8067 112.176 55.9L111.866 57.26C111.752 57.44 111.612 57.6533 111.446 57.9C111.279 58.1467 111.102 58.4067 110.916 58.68C110.736 58.9467 110.552 59.2133 110.366 59.48C110.179 59.74 110.009 59.98 109.856 60.2L109.346 59.51C109.472 59.3567 109.619 59.17 109.786 58.95C109.959 58.7233 110.139 58.48 110.326 58.22C110.519 57.96 110.706 57.7067 110.886 57.46C111.072 57.2067 111.236 56.9733 111.376 56.76C111.522 56.5467 111.632 56.3733 111.706 56.24L111.746 55.73L111.826 55.46ZM111.736 53.8C111.736 53.6867 111.732 53.5667 111.726 53.44C111.726 53.3133 111.716 53.1867 111.696 53.06L112.636 53.09C112.609 53.2233 112.576 53.4333 112.536 53.72C112.496 54 112.456 54.3333 112.416 54.72C112.382 55.1067 112.346 55.5133 112.306 55.94C112.272 56.3667 112.246 56.79 112.226 57.21C112.206 57.6233 112.196 58.0067 112.196 58.36C112.196 58.66 112.196 58.94 112.196 59.2C112.196 59.4533 112.199 59.7067 112.206 59.96C112.212 60.2067 112.222 60.4767 112.236 60.77C112.242 60.8567 112.249 60.9567 112.256 61.07C112.262 61.1833 112.272 61.2867 112.286 61.38H111.416C111.429 61.2867 111.436 61.1833 111.436 61.07C111.442 60.9633 111.446 60.87 111.446 60.79C111.452 60.47 111.456 60.1867 111.456 59.94C111.456 59.6933 111.456 59.44 111.456 59.18C111.462 58.9133 111.469 58.5967 111.476 58.23C111.476 58.0833 111.482 57.8833 111.496 57.63C111.509 57.37 111.526 57.0867 111.546 56.78C111.566 56.4667 111.586 56.15 111.606 55.83C111.626 55.51 111.646 55.21 111.666 54.93C111.686 54.6433 111.702 54.4 111.716 54.2C111.729 54 111.736 53.8667 111.736 53.8ZM124.536 53.06C124.522 53.1467 124.509 53.2433 124.496 53.35C124.489 53.4567 124.482 53.5833 124.476 53.73C124.476 53.83 124.472 53.98 124.466 54.18C124.466 54.38 124.466 54.6067 124.466 54.86C124.466 55.1067 124.466 55.3567 124.466 55.61C124.466 55.8633 124.466 56.0967 124.466 56.31C124.466 56.6433 124.472 56.9933 124.486 57.36C124.499 57.7267 124.516 58.0833 124.536 58.43C124.556 58.7767 124.572 59.0933 124.586 59.38C124.599 59.6667 124.606 59.8933 124.606 60.06C124.606 60.2933 124.549 60.5167 124.436 60.73C124.329 60.9433 124.146 61.1167 123.886 61.25C123.632 61.39 123.286 61.46 122.846 61.46C122.126 61.46 121.576 61.3333 121.196 61.08C120.816 60.8333 120.626 60.47 120.626 59.99C120.626 59.6833 120.716 59.4167 120.896 59.19C121.082 58.9633 121.349 58.7867 121.696 58.66C122.042 58.5267 122.456 58.46 122.936 58.46C123.462 58.46 123.956 58.5233 124.416 58.65C124.882 58.77 125.309 58.9233 125.696 59.11C126.082 59.2967 126.426 59.4933 126.726 59.7C127.026 59.9 127.272 60.08 127.466 60.24L127.006 60.95C126.779 60.7367 126.516 60.5233 126.216 60.31C125.922 60.0967 125.599 59.9 125.246 59.72C124.899 59.54 124.522 59.3967 124.116 59.29C123.716 59.1767 123.289 59.12 122.836 59.12C122.356 59.12 121.989 59.2 121.736 59.36C121.489 59.52 121.366 59.7167 121.366 59.95C121.366 60.0967 121.412 60.2333 121.506 60.36C121.599 60.48 121.749 60.5767 121.956 60.65C122.162 60.7233 122.429 60.76 122.756 60.76C122.949 60.76 123.126 60.7367 123.286 60.69C123.446 60.6367 123.572 60.5467 123.666 60.42C123.766 60.2933 123.816 60.1167 123.816 59.89C123.816 59.6967 123.809 59.4467 123.796 59.14C123.789 58.8267 123.779 58.4967 123.766 58.15C123.752 57.7967 123.739 57.4567 123.726 57.13C123.719 56.8033 123.716 56.53 123.716 56.31C123.716 56.0833 123.716 55.8533 123.716 55.62C123.716 55.38 123.716 55.1433 123.716 54.91C123.716 54.6767 123.716 54.4533 123.716 54.24C123.722 54.0267 123.726 53.8333 123.726 53.66C123.726 53.58 123.722 53.4767 123.716 53.35C123.709 53.2233 123.699 53.1267 123.686 53.06H124.536ZM120.706 54.15C120.872 54.1767 121.066 54.2033 121.286 54.23C121.506 54.2567 121.736 54.2833 121.976 54.31C122.222 54.33 122.456 54.3467 122.676 54.36C122.902 54.3667 123.099 54.37 123.266 54.37C123.899 54.37 124.546 54.3467 125.206 54.3C125.872 54.2533 126.529 54.1767 127.176 54.07L127.166 54.8C126.799 54.84 126.399 54.88 125.966 54.92C125.532 54.96 125.086 54.9933 124.626 55.02C124.172 55.0467 123.722 55.06 123.276 55.06C123.042 55.06 122.766 55.05 122.446 55.03C122.126 55.01 121.809 54.9867 121.496 54.96C121.189 54.9333 120.929 54.91 120.716 54.89L120.706 54.15ZM120.656 56.27C120.836 56.2967 121.036 56.3233 121.256 56.35C121.476 56.3767 121.702 56.3967 121.936 56.41C122.169 56.4233 122.392 56.4367 122.606 56.45C122.819 56.4567 123.009 56.46 123.176 56.46C123.662 56.46 124.132 56.45 124.586 56.43C125.046 56.4033 125.496 56.37 125.936 56.33C126.382 56.2833 126.822 56.2267 127.256 56.16L127.246 56.91C126.912 56.9567 126.579 56.9967 126.246 57.03C125.919 57.0567 125.589 57.08 125.256 57.1C124.929 57.12 124.592 57.1367 124.246 57.15C123.906 57.1567 123.546 57.16 123.166 57.16C122.939 57.16 122.676 57.1533 122.376 57.14C122.082 57.1267 121.782 57.11 121.476 57.09C121.176 57.07 120.906 57.0467 120.666 57.02L120.656 56.27ZM135.903 53.29C135.896 53.3433 135.89 53.4133 135.883 53.5C135.876 53.5867 135.87 53.6767 135.863 53.77C135.863 53.8567 135.86 53.9367 135.853 54.01C135.853 54.2167 135.85 54.43 135.843 54.65C135.843 54.87 135.84 55.0833 135.833 55.29C135.833 55.49 135.83 55.6767 135.823 55.85C135.816 56.1033 135.806 56.3833 135.793 56.69C135.786 56.99 135.773 57.2767 135.753 57.55C135.74 57.8233 135.713 58.0467 135.673 58.22C135.626 58.44 135.543 58.59 135.423 58.67C135.31 58.75 135.136 58.79 134.903 58.79C134.783 58.79 134.636 58.7833 134.463 58.77C134.29 58.75 134.123 58.73 133.963 58.71C133.803 58.69 133.676 58.67 133.583 58.65L133.603 57.96C133.776 58 133.956 58.0333 134.143 58.06C134.336 58.08 134.49 58.09 134.603 58.09C134.73 58.09 134.82 58.0733 134.873 58.04C134.933 58.0067 134.97 57.9333 134.983 57.82C135.01 57.6867 135.03 57.5133 135.043 57.3C135.056 57.08 135.066 56.8433 135.073 56.59C135.086 56.33 135.096 56.0833 135.103 55.85C135.103 55.6633 135.103 55.4667 135.103 55.26C135.103 55.0467 135.103 54.8367 135.103 54.63C135.103 54.4167 135.103 54.22 135.103 54.04C135.103 53.9667 135.1 53.8833 135.093 53.79C135.093 53.6967 135.09 53.6067 135.083 53.52C135.076 53.4267 135.066 53.35 135.053 53.29H135.903ZM131.943 53.6C131.93 53.72 131.92 53.8467 131.913 53.98C131.906 54.1133 131.903 54.2567 131.903 54.41C131.903 54.6233 131.9 54.8967 131.893 55.23C131.893 55.5567 131.89 55.9067 131.883 56.28C131.883 56.6467 131.883 57.0067 131.883 57.36C131.883 57.7133 131.883 58.03 131.883 58.31C131.883 58.59 131.886 58.8 131.893 58.94C131.906 59.2067 131.923 59.4333 131.943 59.62C131.97 59.8067 132.036 59.9567 132.143 60.07C132.25 60.1833 132.423 60.2667 132.663 60.32C132.903 60.3733 133.24 60.4 133.673 60.4C134.033 60.4 134.4 60.39 134.773 60.37C135.146 60.3433 135.496 60.3133 135.823 60.28C136.156 60.24 136.43 60.2 136.643 60.16L136.613 61.01C136.393 61.03 136.12 61.0533 135.793 61.08C135.466 61.1067 135.123 61.1267 134.763 61.14C134.403 61.16 134.053 61.17 133.713 61.17C133.133 61.17 132.673 61.1333 132.333 61.06C131.993 60.9867 131.74 60.87 131.573 60.71C131.406 60.5433 131.293 60.3233 131.233 60.05C131.18 59.7767 131.146 59.4433 131.133 59.05C131.133 58.91 131.13 58.7133 131.123 58.46C131.123 58.2 131.123 57.91 131.123 57.59C131.123 57.2633 131.123 56.9333 131.123 56.6C131.123 56.2667 131.123 55.95 131.123 55.65C131.13 55.35 131.133 55.0933 131.133 54.88C131.133 54.6667 131.133 54.5233 131.133 54.45C131.133 54.2967 131.126 54.1567 131.113 54.03C131.106 53.8967 131.093 53.7533 131.073 53.6H131.943ZM128.953 56C129.113 56 129.28 55.9933 129.453 55.98C129.633 55.9667 129.813 55.9533 129.993 55.94C130.213 55.92 130.526 55.89 130.933 55.85C131.34 55.81 131.8 55.7667 132.313 55.72C132.833 55.6733 133.37 55.6267 133.923 55.58C134.476 55.5267 135.013 55.48 135.533 55.44C136.06 55.3933 136.53 55.36 136.943 55.34C137.07 55.3267 137.2 55.3167 137.333 55.31C137.473 55.3033 137.603 55.2967 137.723 55.29V56.07C137.67 56.0633 137.596 56.0633 137.503 56.07C137.416 56.07 137.32 56.07 137.213 56.07C137.113 56.07 137.02 56.07 136.933 56.07C136.666 56.0767 136.343 56.0933 135.963 56.12C135.583 56.14 135.17 56.17 134.723 56.21C134.283 56.2433 133.833 56.2833 133.373 56.33C132.913 56.37 132.47 56.4133 132.043 56.46C131.616 56.5067 131.23 56.55 130.883 56.59C130.543 56.6233 130.266 56.6533 130.053 56.68C129.953 56.6933 129.84 56.71 129.713 56.73C129.593 56.7433 129.473 56.76 129.353 56.78C129.233 56.7933 129.13 56.8067 129.043 56.82L128.953 56ZM143.973 53.58C143.933 53.6333 143.883 53.7067 143.823 53.8C143.77 53.8867 143.713 53.9767 143.653 54.07C143.54 54.2367 143.403 54.46 143.243 54.74C143.09 55.0133 142.923 55.31 142.743 55.63C142.563 55.9433 142.386 56.2533 142.213 56.56C142.046 56.8667 141.9 57.1433 141.773 57.39C142.013 57.17 142.26 57.0133 142.513 56.92C142.773 56.82 143.023 56.77 143.263 56.77C143.596 56.77 143.87 56.8733 144.083 57.08C144.303 57.2867 144.42 57.5867 144.433 57.98C144.44 58.18 144.443 58.3933 144.443 58.62C144.45 58.84 144.453 59.0567 144.453 59.27C144.453 59.4767 144.46 59.6633 144.473 59.83C144.493 60.0833 144.58 60.2667 144.733 60.38C144.886 60.4867 145.07 60.54 145.283 60.54C145.556 60.54 145.803 60.4667 146.023 60.32C146.25 60.1667 146.446 59.9667 146.613 59.72C146.786 59.4733 146.93 59.2067 147.043 58.92C147.156 58.6333 147.246 58.36 147.313 58.1L147.973 58.64C147.8 59.1733 147.586 59.6467 147.333 60.06C147.08 60.4667 146.773 60.7867 146.413 61.02C146.06 61.2533 145.64 61.37 145.153 61.37C144.8 61.37 144.516 61.3033 144.303 61.17C144.096 61.0433 143.946 60.8833 143.853 60.69C143.766 60.4967 143.716 60.3 143.703 60.1C143.696 59.9067 143.69 59.6967 143.683 59.47C143.683 59.2433 143.683 59.02 143.683 58.8C143.683 58.58 143.676 58.38 143.663 58.2C143.65 57.98 143.58 57.81 143.453 57.69C143.333 57.5633 143.16 57.5 142.933 57.5C142.666 57.5 142.406 57.58 142.153 57.74C141.906 57.8933 141.68 58.0933 141.473 58.34C141.273 58.5867 141.11 58.8433 140.983 59.11C140.91 59.2567 140.826 59.4333 140.733 59.64C140.646 59.8467 140.563 60.06 140.483 60.28C140.403 60.5 140.33 60.7067 140.263 60.9C140.203 61.0933 140.156 61.2533 140.123 61.38L139.263 61.08C139.383 60.74 139.54 60.3533 139.733 59.92C139.926 59.4867 140.136 59.0333 140.363 58.56C140.59 58.08 140.823 57.6067 141.063 57.14C141.303 56.6667 141.53 56.2233 141.743 55.81C141.963 55.39 142.16 55.0233 142.333 54.71C142.506 54.39 142.636 54.15 142.723 53.99C142.783 53.87 142.843 53.75 142.903 53.63C142.97 53.5033 143.033 53.3667 143.093 53.22L143.973 53.58ZM150.443 58.56C150.73 58.56 150.986 58.63 151.213 58.77C151.44 58.9033 151.623 59.0867 151.763 59.32C151.903 59.5467 151.973 59.8 151.973 60.08C151.973 60.36 151.903 60.6167 151.763 60.85C151.623 61.0767 151.44 61.26 151.213 61.4C150.986 61.54 150.73 61.61 150.443 61.61C150.163 61.61 149.906 61.54 149.673 61.4C149.446 61.26 149.263 61.0767 149.123 60.85C148.99 60.6167 148.923 60.36 148.923 60.08C148.923 59.8 148.99 59.5467 149.123 59.32C149.263 59.0867 149.45 58.9033 149.683 58.77C149.916 58.63 150.17 58.56 150.443 58.56ZM150.443 61.1C150.73 61.1 150.97 61.0033 151.163 60.81C151.363 60.61 151.463 60.3667 151.463 60.08C151.463 59.9 151.416 59.7333 151.323 59.58C151.236 59.4267 151.116 59.3033 150.963 59.21C150.81 59.1167 150.636 59.07 150.443 59.07C150.263 59.07 150.096 59.1167 149.943 59.21C149.79 59.3033 149.666 59.4267 149.573 59.58C149.48 59.7333 149.433 59.9 149.433 60.08C149.433 60.2667 149.48 60.44 149.573 60.6C149.666 60.7533 149.79 60.8767 149.943 60.97C150.096 61.0567 150.263 61.1 150.443 61.1Z" fill="black"/>
<path d="M51.985 92.135C52.415 92.175 52.835 92.205 53.245 92.225C53.655 92.245 54.085 92.255 54.535 92.255C55.435 92.255 56.33 92.22 57.22 92.15C58.11 92.08 58.935 91.97 59.695 91.82V92.975C58.895 93.105 58.05 93.2 57.16 93.26C56.28 93.32 55.395 93.355 54.505 93.365C54.075 93.365 53.655 93.355 53.245 93.335C52.845 93.315 52.425 93.29 51.985 93.26V92.135ZM57.235 89.45C57.215 89.6 57.195 89.75 57.175 89.9C57.165 90.05 57.155 90.2 57.145 90.35C57.135 90.53 57.125 90.76 57.115 91.04C57.105 91.32 57.1 91.62 57.1 91.94C57.1 92.25 57.1 92.555 57.1 92.855C57.1 93.425 57.11 93.995 57.13 94.565C57.15 95.135 57.175 95.69 57.205 96.23C57.235 96.77 57.26 97.28 57.28 97.76C57.31 98.23 57.325 98.66 57.325 99.05C57.325 99.35 57.28 99.645 57.19 99.935C57.11 100.225 56.97 100.485 56.77 100.715C56.58 100.945 56.315 101.125 55.975 101.255C55.645 101.395 55.23 101.465 54.73 101.465C53.72 101.465 52.945 101.275 52.405 100.895C51.875 100.515 51.61 99.99 51.61 99.32C51.61 98.9 51.73 98.52 51.97 98.18C52.22 97.83 52.57 97.555 53.02 97.355C53.48 97.155 54.04 97.055 54.7 97.055C55.34 97.055 55.925 97.13 56.455 97.28C56.995 97.42 57.49 97.61 57.94 97.85C58.4 98.08 58.82 98.34 59.2 98.63C59.58 98.91 59.93 99.19 60.25 99.47L59.59 100.475C59.07 99.975 58.545 99.54 58.015 99.17C57.495 98.8 56.955 98.51 56.395 98.3C55.835 98.09 55.24 97.985 54.61 97.985C54.04 97.985 53.575 98.1 53.215 98.33C52.865 98.55 52.69 98.84 52.69 99.2C52.69 99.58 52.86 99.875 53.2 100.085C53.54 100.285 53.98 100.385 54.52 100.385C54.95 100.385 55.28 100.315 55.51 100.175C55.75 100.035 55.915 99.845 56.005 99.605C56.105 99.365 56.155 99.08 56.155 98.75C56.155 98.48 56.145 98.115 56.125 97.655C56.105 97.195 56.08 96.695 56.05 96.155C56.02 95.605 55.995 95.045 55.975 94.475C55.955 93.905 55.945 93.37 55.945 92.87C55.945 92.36 55.945 91.88 55.945 91.43C55.945 90.98 55.945 90.625 55.945 90.365C55.945 90.235 55.94 90.085 55.93 89.915C55.92 89.735 55.905 89.58 55.885 89.45H57.235ZM49.825 89.54C49.795 89.62 49.76 89.725 49.72 89.855C49.69 89.975 49.66 90.1 49.63 90.23C49.61 90.36 49.59 90.47 49.57 90.56C49.51 90.84 49.445 91.175 49.375 91.565C49.315 91.945 49.25 92.36 49.18 92.81C49.11 93.25 49.045 93.7 48.985 94.16C48.935 94.61 48.895 95.045 48.865 95.465C48.835 95.885 48.82 96.265 48.82 96.605C48.82 96.965 48.83 97.31 48.85 97.64C48.88 97.97 48.92 98.32 48.97 98.69C49.05 98.46 49.14 98.215 49.24 97.955C49.34 97.695 49.44 97.435 49.54 97.175C49.65 96.915 49.745 96.685 49.825 96.485L50.44 96.965C50.32 97.305 50.185 97.69 50.035 98.12C49.895 98.54 49.76 98.945 49.63 99.335C49.51 99.715 49.425 100.03 49.375 100.28C49.355 100.38 49.335 100.495 49.315 100.625C49.305 100.755 49.305 100.865 49.315 100.955C49.315 101.025 49.315 101.11 49.315 101.21C49.325 101.31 49.335 101.4 49.345 101.48L48.295 101.555C48.145 101.015 48.01 100.345 47.89 99.545C47.78 98.735 47.725 97.825 47.725 96.815C47.725 96.255 47.75 95.675 47.8 95.075C47.86 94.465 47.925 93.87 47.995 93.29C48.075 92.71 48.15 92.18 48.22 91.7C48.3 91.21 48.365 90.81 48.415 90.5C48.435 90.33 48.455 90.15 48.475 89.96C48.495 89.77 48.505 89.595 48.505 89.435L49.825 89.54ZM64.345 90.53C64.325 90.65 64.305 90.8 64.285 90.98C64.275 91.16 64.26 91.34 64.24 91.52C64.23 91.7 64.225 91.855 64.225 91.985C64.215 92.295 64.21 92.65 64.21 93.05C64.22 93.44 64.23 93.85 64.24 94.28C64.26 94.7 64.29 95.12 64.33 95.54C64.41 96.37 64.545 97.1 64.735 97.73C64.925 98.35 65.155 98.835 65.425 99.185C65.705 99.535 66.02 99.71 66.37 99.71C66.56 99.71 66.745 99.625 66.925 99.455C67.105 99.275 67.275 99.04 67.435 98.75C67.605 98.45 67.755 98.12 67.885 97.76C68.025 97.39 68.14 97.02 68.23 96.65L69.175 97.715C68.875 98.565 68.57 99.24 68.26 99.74C67.96 100.23 67.65 100.585 67.33 100.805C67.02 101.025 66.695 101.135 66.355 101.135C65.885 101.135 65.43 100.965 64.99 100.625C64.55 100.275 64.17 99.715 63.85 98.945C63.53 98.165 63.3 97.13 63.16 95.84C63.11 95.4 63.07 94.925 63.04 94.415C63.02 93.905 63.005 93.42 62.995 92.96C62.995 92.5 62.995 92.125 62.995 91.835C62.995 91.665 62.99 91.445 62.98 91.175C62.97 90.905 62.94 90.68 62.89 90.5L64.345 90.53ZM72.16 90.95C72.43 91.29 72.685 91.69 72.925 92.15C73.175 92.6 73.4 93.085 73.6 93.605C73.81 94.115 73.995 94.645 74.155 95.195C74.325 95.745 74.46 96.295 74.56 96.845C74.67 97.385 74.75 97.905 74.8 98.405L73.6 98.9C73.54 98.22 73.435 97.53 73.285 96.83C73.135 96.12 72.95 95.435 72.73 94.775C72.51 94.105 72.255 93.475 71.965 92.885C71.675 92.295 71.35 91.785 70.99 91.355L72.16 90.95Z" fill="black"/>
<path d="M139.845 90.53C139.825 90.65 139.805 90.8 139.785 90.98C139.775 91.16 139.76 91.34 139.74 91.52C139.73 91.7 139.725 91.855 139.725 91.985C139.715 92.295 139.71 92.65 139.71 93.05C139.72 93.44 139.73 93.85 139.74 94.28C139.76 94.7 139.79 95.12 139.83 95.54C139.91 96.37 140.045 97.1 140.235 97.73C140.425 98.35 140.655 98.835 140.925 99.185C141.205 99.535 141.52 99.71 141.87 99.71C142.06 99.71 142.245 99.625 142.425 99.455C142.605 99.275 142.775 99.04 142.935 98.75C143.105 98.45 143.255 98.12 143.385 97.76C143.525 97.39 143.64 97.02 143.73 96.65L144.675 97.715C144.375 98.565 144.07 99.24 143.76 99.74C143.46 100.23 143.15 100.585 142.83 100.805C142.52 101.025 142.195 101.135 141.855 101.135C141.385 101.135 140.93 100.965 140.49 100.625C140.05 100.275 139.67 99.715 139.35 98.945C139.03 98.165 138.8 97.13 138.66 95.84C138.61 95.4 138.57 94.925 138.54 94.415C138.52 93.905 138.505 93.42 138.495 92.96C138.495 92.5 138.495 92.125 138.495 91.835C138.495 91.665 138.49 91.445 138.48 91.175C138.47 90.905 138.44 90.68 138.39 90.5L139.845 90.53ZM147.66 90.95C147.93 91.29 148.185 91.69 148.425 92.15C148.675 92.6 148.9 93.085 149.1 93.605C149.31 94.115 149.495 94.645 149.655 95.195C149.825 95.745 149.96 96.295 150.06 96.845C150.17 97.385 150.25 97.905 150.3 98.405L149.1 98.9C149.04 98.22 148.935 97.53 148.785 96.83C148.635 96.12 148.45 95.435 148.23 94.775C148.01 94.105 147.755 93.475 147.465 92.885C147.175 92.295 146.85 91.785 146.49 91.355L147.66 90.95ZM154.845 90.53C154.825 90.65 154.805 90.8 154.785 90.98C154.775 91.16 154.76 91.34 154.74 91.52C154.73 91.7 154.725 91.855 154.725 91.985C154.715 92.295 154.71 92.65 154.71 93.05C154.72 93.44 154.73 93.85 154.74 94.28C154.76 94.7 154.79 95.12 154.83 95.54C154.91 96.37 155.045 97.1 155.235 97.73C155.425 98.35 155.655 98.835 155.925 99.185C156.205 99.535 156.52 99.71 156.87 99.71C157.06 99.71 157.245 99.625 157.425 99.455C157.605 99.275 157.775 99.04 157.935 98.75C158.105 98.45 158.255 98.12 158.385 97.76C158.525 97.39 158.64 97.02 158.73 96.65L159.675 97.715C159.375 98.565 159.07 99.24 158.76 99.74C158.46 100.23 158.15 100.585 157.83 100.805C157.52 101.025 157.195 101.135 156.855 101.135C156.385 101.135 155.93 100.965 155.49 100.625C155.05 100.275 154.67 99.715 154.35 98.945C154.03 98.165 153.8 97.13 153.66 95.84C153.61 95.4 153.57 94.925 153.54 94.415C153.52 93.905 153.505 93.42 153.495 92.96C153.495 92.5 153.495 92.125 153.495 91.835C153.495 91.665 153.49 91.445 153.48 91.175C153.47 90.905 153.44 90.68 153.39 90.5L154.845 90.53ZM162.66 90.95C162.93 91.29 163.185 91.69 163.425 92.15C163.675 92.6 163.9 93.085 164.1 93.605C164.31 94.115 164.495 94.645 164.655 95.195C164.825 95.745 164.96 96.295 165.06 96.845C165.17 97.385 165.25 97.905 165.3 98.405L164.1 98.9C164.04 98.22 163.935 97.53 163.785 96.83C163.635 96.12 163.45 95.435 163.23 94.775C163.01 94.105 162.755 93.475 162.465 92.885C162.175 92.295 161.85 91.785 161.49 91.355L162.66 90.95ZM171.18 89.165C171.59 89.255 172.06 89.345 172.59 89.435C173.12 89.515 173.665 89.595 174.225 89.675C174.785 89.745 175.315 89.805 175.815 89.855C176.325 89.895 176.755 89.93 177.105 89.96L176.94 91.07C176.57 91.04 176.135 90.995 175.635 90.935C175.145 90.875 174.63 90.81 174.09 90.74C173.55 90.67 173.01 90.595 172.47 90.515C171.94 90.425 171.445 90.34 170.985 90.26L171.18 89.165ZM177.405 93.455C177.265 93.555 177.115 93.67 176.955 93.8C176.795 93.93 176.67 94.04 176.58 94.13C176.43 94.26 176.225 94.445 175.965 94.685C175.715 94.915 175.445 95.17 175.155 95.45C174.875 95.72 174.605 95.975 174.345 96.215C174.095 96.455 173.9 96.65 173.76 96.8C173.84 96.79 173.935 96.79 174.045 96.8C174.165 96.8 174.265 96.81 174.345 96.83C174.635 96.86 174.87 96.97 175.05 97.16C175.24 97.35 175.385 97.6 175.485 97.91C175.535 98.05 175.585 98.22 175.635 98.42C175.695 98.62 175.755 98.825 175.815 99.035C175.875 99.235 175.93 99.42 175.98 99.59C176.08 99.87 176.225 100.075 176.415 100.205C176.605 100.335 176.895 100.4 177.285 100.4C177.625 100.4 177.965 100.39 178.305 100.37C178.655 100.34 178.985 100.3 179.295 100.25C179.615 100.2 179.89 100.15 180.12 100.1L180.045 101.36C179.835 101.39 179.56 101.42 179.22 101.45C178.88 101.49 178.53 101.52 178.17 101.54C177.82 101.57 177.505 101.585 177.225 101.585C176.625 101.585 176.135 101.495 175.755 101.315C175.385 101.135 175.12 100.8 174.96 100.31C174.91 100.16 174.85 99.975 174.78 99.755C174.72 99.525 174.66 99.3 174.6 99.08C174.55 98.86 174.5 98.68 174.45 98.54C174.36 98.28 174.235 98.085 174.075 97.955C173.925 97.815 173.745 97.745 173.535 97.745C173.325 97.745 173.13 97.795 172.95 97.895C172.77 97.985 172.595 98.115 172.425 98.285C172.315 98.395 172.165 98.545 171.975 98.735C171.785 98.915 171.575 99.13 171.345 99.38C171.125 99.62 170.895 99.875 170.655 100.145C170.415 100.405 170.185 100.665 169.965 100.925C169.745 101.175 169.55 101.41 169.38 101.63L168.24 100.835C168.33 100.755 168.44 100.66 168.57 100.55C168.7 100.43 168.84 100.3 168.99 100.16C169.09 100.06 169.275 99.875 169.545 99.605C169.815 99.325 170.14 98.995 170.52 98.615C170.91 98.235 171.32 97.83 171.75 97.4C172.18 96.96 172.61 96.53 173.04 96.11C173.47 95.68 173.865 95.28 174.225 94.91C174.595 94.54 174.905 94.23 175.155 93.98C174.925 93.99 174.645 94.01 174.315 94.04C173.985 94.06 173.64 94.085 173.28 94.115C172.92 94.145 172.565 94.175 172.215 94.205C171.865 94.235 171.54 94.26 171.24 94.28C170.95 94.3 170.715 94.32 170.535 94.34C170.285 94.36 170.06 94.385 169.86 94.415C169.67 94.435 169.49 94.46 169.32 94.49L169.215 93.17C169.385 93.18 169.58 93.19 169.8 93.2C170.02 93.21 170.25 93.21 170.49 93.2C170.66 93.2 170.92 93.19 171.27 93.17C171.62 93.15 172.015 93.125 172.455 93.095C172.905 93.065 173.355 93.035 173.805 93.005C174.255 92.965 174.67 92.93 175.05 92.9C175.44 92.87 175.745 92.84 175.965 92.81C176.095 92.79 176.23 92.765 176.37 92.735C176.51 92.705 176.615 92.675 176.685 92.645L177.405 93.455Z" fill="black"/>
</svg>
